<?xml version="1.0" encoding="us-ascii" standalone="no"?><svg xmlns="http://www.w3.org/2000/svg" xmlns:xlink="http://www.w3.org/1999/xlink" contentStyleType="text/css" height="726px" preserveAspectRatio="none" style="width:1804px;height:726px;background:#FFFFFF;" version="1.1" viewBox="0 0 1804 726" width="1804px" zoomAndPan="magnify"><defs/><g><text fill="#000000" font-family="sans-serif" font-size="14" font-weight="bold" lengthAdjust="spacing" textLength="201" x="794.75" y="23.1318">IHash &#8212; Jerarqu&#237;a de Clases</text><!--class IComponent--><g id="elem_IComponent"><rect codeLine="7" fill="#F1F1F1" height="64.0986" id="IComponent" rx="2.5" ry="2.5" style="stroke:#181818;stroke-width:0.5;" width="176" x="1167" y="128.0486"/><ellipse cx="1212.25" cy="144.0486" fill="#A9DCDF" rx="11" ry="11" style="stroke:#181818;stroke-width:1.0;"/><path d="M1207.3438,150.0486 L1210.4688,137.6424 L1213.2031,137.6424 L1216.3594,150.0486 L1214.1719,150.0486 L1213.5,147.033 L1210.2031,147.033 L1209.5156,150.0486 L1207.3438,150.0486 Z M1210.5938,145.2986 L1213.1094,145.2986 L1212.3594,141.9705 Q1212.1719,141.1424 1212.0313,140.4705 Q1211.9063,139.7986 1211.8438,139.4861 Q1211.7969,139.7986 1211.6563,140.4705 Q1211.5313,141.1424 1211.3438,141.9549 L1210.5938,145.2986 Z " fill="#000000"/><text fill="#000000" font-family="sans-serif" font-size="14" font-style="italic" lengthAdjust="spacing" textLength="77" x="1232.75" y="149.1312">IComponent</text><line style="stroke:#181818;stroke-width:0.5;" x1="1168" x2="1342" y1="160.0486" y2="160.0486"/><line style="stroke:#181818;stroke-width:0.5;" x1="1168" x2="1342" y1="168.0486" y2="168.0486"/><text fill="#000000" font-family="sans-serif" font-size="14" font-style="italic" lengthAdjust="spacing" textLength="164" x="1173" y="185.1805">+~IComponent() noexcept</text></g><!--class IHash--><g id="elem_IHash"><rect codeLine="11" fill="#F1F1F1" height="96.2959" id="IHash" rx="2.5" ry="2.5" style="stroke:#181818;stroke-width:0.5;" width="573" x="875.5" y="252.1486"/><ellipse cx="1139.25" cy="268.1486" fill="#B4A7E5" rx="11" ry="11" style="stroke:#181818;stroke-width:1.0;"/><path d="M1135.2813,274.6486 L1135.2813,272.7268 L1137.7813,272.7268 L1137.7813,264.1643 L1135.2813,264.1643 L1135.2813,262.2424 L1142.4219,262.2424 L1142.4219,264.1643 L1139.9219,264.1643 L1139.9219,272.7268 L1142.4219,272.7268 L1142.4219,274.6486 L1135.2813,274.6486 Z " fill="#000000"/><text fill="#000000" font-family="sans-serif" font-size="14" font-style="italic" lengthAdjust="spacing" textLength="37" x="1159.75" y="273.2312">IHash</text><line style="stroke:#181818;stroke-width:0.5;" x1="876.5" x2="1447.5" y1="284.1486" y2="284.1486"/><line style="stroke:#181818;stroke-width:0.5;" x1="876.5" x2="1447.5" y1="292.1486" y2="292.1486"/><text fill="#000000" font-family="sans-serif" font-size="14" font-style="italic" lengthAdjust="spacing" textLength="438" x="881.5" y="309.2805">+get_hash_size(HashAlgorithm, size_t*) noexcept : ComponentResult</text><text fill="#000000" font-family="sans-serif" font-size="14" font-style="italic" lengthAdjust="spacing" textLength="561" x="881.5" y="325.3791">+hash(HashAlgorithm, unsigned char*, size_t, char*, size_t) noexcept : ComponentResult</text><text fill="#000000" font-family="sans-serif" font-size="14" font-style="italic" lengthAdjust="spacing" textLength="518" x="881.5" y="341.4777">+verify(HashAlgorithm, unsigned char*, size_t, char*) noexcept : ComponentResult</text></g><!--class HashComponent--><g id="elem_HashComponent"><rect codeLine="17" fill="#F1F1F1" height="144.5918" id="HashComponent" rx="2.5" ry="2.5" style="stroke:#181818;stroke-width:0.5;" width="570" x="674" y="408.4486"/><ellipse cx="902.25" cy="424.4486" fill="#ADD1B2" rx="11" ry="11" style="stroke:#181818;stroke-width:1.0;"/><path d="M902.4844,431.1205 Q901.2813,431.1205 900.3906,430.6674 Q899.5156,430.2143 899.0313,429.4018 Q898.5469,428.5736 898.5469,427.4486 L898.5469,422.0424 Q898.5469,420.9174 899.0313,420.1049 Q899.5156,419.2768 900.3906,418.8236 Q901.2813,418.3705 902.4844,418.3705 Q903.6719,418.3705 904.5469,418.8236 Q905.4375,419.2768 905.9375,420.1049 Q906.4375,420.9174 906.4375,422.0424 L904.2813,422.0424 Q904.2813,421.1674 903.8125,420.7143 Q903.3594,420.2455 902.4844,420.2455 Q901.625,420.2455 901.1406,420.7143 Q900.6719,421.1674 900.6719,422.0424 L900.6719,427.4486 Q900.6719,428.308 901.1406,428.7768 Q901.625,429.2455 902.4844,429.2455 Q903.3594,429.2455 903.8125,428.7768 Q904.2813,428.308 904.2813,427.4486 L906.4375,427.4486 Q906.4375,428.5736 905.9375,429.4018 Q905.4375,430.2143 904.5469,430.6674 Q903.6719,431.1205 902.4844,431.1205 Z " fill="#000000"/><text fill="#000000" font-family="sans-serif" font-size="14" lengthAdjust="spacing" textLength="105" x="922.75" y="429.5312">HashComponent</text><line style="stroke:#181818;stroke-width:0.5;" x1="675" x2="1243" y1="440.4486" y2="440.4486"/><text fill="#000000" font-family="sans-serif" font-size="14" lengthAdjust="spacing" textLength="157" x="680" y="457.5805">-Sha256Engine sha256_</text><text fill="#000000" font-family="sans-serif" font-size="14" lengthAdjust="spacing" textLength="125" x="680" y="473.6791">-Sha1Engine sha1_</text><text fill="#000000" font-family="sans-serif" font-size="14" lengthAdjust="spacing" textLength="115" x="680" y="489.7777">-Md5Engine md5_</text><line style="stroke:#181818;stroke-width:0.5;" x1="675" x2="1243" y1="496.7445" y2="496.7445"/><text fill="#000000" font-family="sans-serif" font-size="14" lengthAdjust="spacing" textLength="435" x="680" y="513.8764">+get_hash_size(HashAlgorithm, size_t*) noexcept : ComponentResult</text><text fill="#000000" font-family="sans-serif" font-size="14" lengthAdjust="spacing" textLength="558" x="680" y="529.975">+hash(HashAlgorithm, unsigned char*, size_t, char*, size_t) noexcept : ComponentResult</text><text fill="#000000" font-family="sans-serif" font-size="14" lengthAdjust="spacing" textLength="517" x="680" y="546.0736">+verify(HashAlgorithm, unsigned char*, size_t, char*) noexcept : ComponentResult</text></g><!--class Sha256Engine--><g id="elem_Sha256Engine"><rect codeLine="26" fill="#F1F1F1" height="64.0986" id="Sha256Engine" rx="2.5" ry="2.5" style="stroke:#181818;stroke-width:0.5;" width="450" x="7" y="634.2286"/><ellipse cx="181.25" cy="650.2286" fill="#ADD1B2" rx="11" ry="11" style="stroke:#181818;stroke-width:1.0;"/><path d="M181.4844,656.9005 Q180.2813,656.9005 179.3906,656.4474 Q178.5156,655.9943 178.0313,655.1818 Q177.5469,654.3536 177.5469,653.2286 L177.5469,647.8224 Q177.5469,646.6974 178.0313,645.8849 Q178.5156,645.0568 179.3906,644.6036 Q180.2813,644.1505 181.4844,644.1505 Q182.6719,644.1505 183.5469,644.6036 Q184.4375,645.0568 184.9375,645.8849 Q185.4375,646.6974 185.4375,647.8224 L183.2813,647.8224 Q183.2813,646.9474 182.8125,646.4943 Q182.3594,646.0255 181.4844,646.0255 Q180.625,646.0255 180.1406,646.4943 Q179.6719,646.9474 179.6719,647.8224 L179.6719,653.2286 Q179.6719,654.088 180.1406,654.5568 Q180.625,655.0255 181.4844,655.0255 Q182.3594,655.0255 182.8125,654.5568 Q183.2813,654.088 183.2813,653.2286 L185.4375,653.2286 Q185.4375,654.3536 184.9375,655.1818 Q184.4375,655.9943 183.5469,656.4474 Q182.6719,656.9005 181.4844,656.9005 Z " fill="#000000"/><text fill="#000000" font-family="sans-serif" font-size="14" lengthAdjust="spacing" textLength="93" x="201.75" y="655.3112">Sha256Engine</text><line style="stroke:#181818;stroke-width:0.5;" x1="8" x2="456" y1="666.2286" y2="666.2286"/><line style="stroke:#181818;stroke-width:0.5;" x1="8" x2="456" y1="674.2286" y2="674.2286"/><text fill="#000000" font-family="sans-serif" font-size="14" lengthAdjust="spacing" textLength="438" x="13" y="691.3605">+compute(unsigned char*, size_t, char*) noexcept : ComponentResult</text></g><!--class Sha1Engine--><g id="elem_Sha1Engine"><rect codeLine="30" fill="#F1F1F1" height="64.0986" id="Sha1Engine" rx="2.5" ry="2.5" style="stroke:#181818;stroke-width:0.5;" width="450" x="492" y="634.2286"/><ellipse cx="674.25" cy="650.2286" fill="#ADD1B2" rx="11" ry="11" style="stroke:#181818;stroke-width:1.0;"/><path d="M674.4844,656.9005 Q673.2813,656.9005 672.3906,656.4474 Q671.5156,655.9943 671.0313,655.1818 Q670.5469,654.3536 670.5469,653.2286 L670.5469,647.8224 Q670.5469,646.6974 671.0313,645.8849 Q671.5156,645.0568 672.3906,644.6036 Q673.2813,644.1505 674.4844,644.1505 Q675.6719,644.1505 676.5469,644.6036 Q677.4375,645.0568 677.9375,645.8849 Q678.4375,646.6974 678.4375,647.8224 L676.2813,647.8224 Q676.2813,646.9474 675.8125,646.4943 Q675.3594,646.0255 674.4844,646.0255 Q673.625,646.0255 673.1406,646.4943 Q672.6719,646.9474 672.6719,647.8224 L672.6719,653.2286 Q672.6719,654.088 673.1406,654.5568 Q673.625,655.0255 674.4844,655.0255 Q675.3594,655.0255 675.8125,654.5568 Q676.2813,654.088 676.2813,653.2286 L678.4375,653.2286 Q678.4375,654.3536 677.9375,655.1818 Q677.4375,655.9943 676.5469,656.4474 Q675.6719,656.9005 674.4844,656.9005 Z " fill="#000000"/><text fill="#000000" font-family="sans-serif" font-size="14" lengthAdjust="spacing" textLength="77" x="694.75" y="655.3112">Sha1Engine</text><line style="stroke:#181818;stroke-width:0.5;" x1="493" x2="941" y1="666.2286" y2="666.2286"/><line style="stroke:#181818;stroke-width:0.5;" x1="493" x2="941" y1="674.2286" y2="674.2286"/><text fill="#000000" font-family="sans-serif" font-size="14" lengthAdjust="spacing" textLength="438" x="498" y="691.3605">+compute(unsigned char*, size_t, char*) noexcept : ComponentResult</text></g><!--class Md5Engine--><g id="elem_Md5Engine"><rect codeLine="34" fill="#F1F1F1" height="64.0986" id="Md5Engine" rx="2.5" ry="2.5" style="stroke:#181818;stroke-width:0.5;" width="450" x="977" y="634.2286"/><ellipse cx="1162.25" cy="650.2286" fill="#ADD1B2" rx="11" ry="11" style="stroke:#181818;stroke-width:1.0;"/><path d="M1162.4844,656.9005 Q1161.2813,656.9005 1160.3906,656.4474 Q1159.5156,655.9943 1159.0313,655.1818 Q1158.5469,654.3536 1158.5469,653.2286 L1158.5469,647.8224 Q1158.5469,646.6974 1159.0313,645.8849 Q1159.5156,645.0568 1160.3906,644.6036 Q1161.2813,644.1505 1162.4844,644.1505 Q1163.6719,644.1505 1164.5469,644.6036 Q1165.4375,645.0568 1165.9375,645.8849 Q1166.4375,646.6974 1166.4375,647.8224 L1164.2813,647.8224 Q1164.2813,646.9474 1163.8125,646.4943 Q1163.3594,646.0255 1162.4844,646.0255 Q1161.625,646.0255 1161.1406,646.4943 Q1160.6719,646.9474 1160.6719,647.8224 L1160.6719,653.2286 Q1160.6719,654.088 1161.1406,654.5568 Q1161.625,655.0255 1162.4844,655.0255 Q1163.3594,655.0255 1163.8125,654.5568 Q1164.2813,654.088 1164.2813,653.2286 L1166.4375,653.2286 Q1166.4375,654.3536 1165.9375,655.1818 Q1165.4375,655.9943 1164.5469,656.4474 Q1163.6719,656.9005 1162.4844,656.9005 Z " fill="#000000"/><text fill="#000000" font-family="sans-serif" font-size="14" lengthAdjust="spacing" textLength="71" x="1182.75" y="655.3112">Md5Engine</text><line style="stroke:#181818;stroke-width:0.5;" x1="978" x2="1426" y1="666.2286" y2="666.2286"/><line style="stroke:#181818;stroke-width:0.5;" x1="978" x2="1426" y1="674.2286" y2="674.2286"/><text fill="#000000" font-family="sans-serif" font-size="14" lengthAdjust="spacing" textLength="438" x="983" y="691.3605">+compute(unsigned char*, size_t, char*) noexcept : ComponentResult</text></g><!--class C_API--><g id="elem_C_API"><rect codeLine="38" fill="#F1F1F1" height="106.4932" id="C_API" rx="2.5" ry="2.5" style="stroke:#181818;stroke-width:0.5;" width="335" x="1462.5" y="613.0386"/><ellipse cx="1590.25" cy="634.1373" fill="#ADD1B2" rx="11" ry="11" style="stroke:#181818;stroke-width:1.0;"/><path d="M1590.4844,640.8091 Q1589.2813,640.8091 1588.3906,640.356 Q1587.5156,639.9029 1587.0313,639.0904 Q1586.5469,638.2623 1586.5469,637.1373 L1586.5469,631.731 Q1586.5469,630.606 1587.0313,629.7935 Q1587.5156,628.9654 1588.3906,628.5123 Q1589.2813,628.0591 1590.4844,628.0591 Q1591.6719,628.0591 1592.5469,628.5123 Q1593.4375,628.9654 1593.9375,629.7935 Q1594.4375,630.606 1594.4375,631.731 L1592.2813,631.731 Q1592.2813,630.856 1591.8125,630.4029 Q1591.3594,629.9341 1590.4844,629.9341 Q1589.625,629.9341 1589.1406,630.4029 Q1588.6719,630.856 1588.6719,631.731 L1588.6719,637.1373 Q1588.6719,637.9966 1589.1406,638.4654 Q1589.625,638.9341 1590.4844,638.9341 Q1591.3594,638.9341 1591.8125,638.4654 Q1592.2813,637.9966 1592.2813,637.1373 L1594.4375,637.1373 Q1594.4375,638.2623 1593.9375,639.0904 Q1593.4375,639.9029 1592.5469,640.356 Q1591.6719,640.8091 1590.4844,640.8091 Z " fill="#000000"/><text fill="#000000" font-family="sans-serif" font-size="14" lengthAdjust="spacing" textLength="71" x="1610.75" y="631.1705">extern \"C\"</text><text fill="#000000" font-family="sans-serif" font-size="14" lengthAdjust="spacing" textLength="54" x="1619.25" y="647.2691">&#8212; C-API</text><line style="stroke:#181818;stroke-width:0.5;" x1="1463.5" x2="1796.5" y1="655.2359" y2="655.2359"/><line style="stroke:#181818;stroke-width:0.5;" x1="1463.5" x2="1796.5" y1="663.2359" y2="663.2359"/><text fill="#000000" font-family="sans-serif" font-size="14" lengthAdjust="spacing" textLength="207" x="1468.5" y="680.3677">+get_api_version() noexcept : int</text><text fill="#000000" font-family="sans-serif" font-size="14" lengthAdjust="spacing" textLength="290" x="1468.5" y="696.4664">+create_component() noexcept : IComponent*</text><text fill="#000000" font-family="sans-serif" font-size="14" lengthAdjust="spacing" textLength="323" x="1468.5" y="712.565">+destroy_component(IComponent*) noexcept : void</text></g><g id="elem_GMN15"><path d="M1172.5,43.0986 L1172.5,68.0474 A0,0 0 0 0 1172.5,68.0474 L1251,68.0474 L1255,127.8686 L1259,68.0474 L1337.5,68.0474 A0,0 0 0 0 1337.5,68.0474 L1337.5,53.0986 L1327.5,43.0986 L1172.5,43.0986 A0,0 0 0 0 1172.5,43.0986 " fill="#FEFFDD" style="stroke:#181818;stroke-width:0.5;"/><path d="M1327.5,43.0986 L1327.5,53.0986 L1337.5,53.0986 L1327.5,43.0986 " fill="#FEFFDD" style="stroke:#181818;stroke-width:0.5;"/><text fill="#000000" font-family="sans-serif" font-size="13" lengthAdjust="spacing" textLength="144" x="1178.5" y="60.2925">include/i_component.hpp</text></g><g id="elem_GMN18"><path d="M1003.5,147.6286 L1003.5,172.5774 A0,0 0 0 0 1003.5,172.5774 L1064,172.5774 L1068,251.9286 L1072,172.5774 L1132.5,172.5774 A0,0 0 0 0 1132.5,172.5774 L1132.5,157.6286 L1122.5,147.6286 L1003.5,147.6286 A0,0 0 0 0 1003.5,147.6286 " fill="#FEFFDD" style="stroke:#181818;stroke-width:0.5;"/><path d="M1122.5,147.6286 L1122.5,157.6286 L1132.5,157.6286 L1122.5,147.6286 " fill="#FEFFDD" style="stroke:#181818;stroke-width:0.5;"/><text fill="#000000" font-family="sans-serif" font-size="13" lengthAdjust="spacing" textLength="108" x="1009.5" y="164.8225">include/i_hash.hpp</text></g><g id="elem_GMN21"><path d="M673.5,287.8186 L673.5,312.7674 A0,0 0 0 0 673.5,312.7674 L753.25,312.7674 L757.25,408.3686 L761.25,312.7674 L840.5,312.7674 A0,0 0 0 0 840.5,312.7674 L840.5,297.8186 L830.5,287.8186 L673.5,287.8186 A0,0 0 0 0 673.5,287.8186 " fill="#FEFFDD" style="stroke:#181818;stroke-width:0.5;"/><path d="M830.5,287.8186 L830.5,297.8186 L840.5,297.8186 L830.5,287.8186 " fill="#FEFFDD" style="stroke:#181818;stroke-width:0.5;"/><text fill="#000000" font-family="sans-serif" font-size="13" lengthAdjust="spacing" textLength="146" x="679.5" y="305.0125">src/hash_component.cpp</text></g><!--reverse link IComponent to IHash--><g id="link_IComponent_IHash"><path codeLine="44" d="M1255,210.6186 C1255,228.1686 1255,232.1886 1255,251.7286 " fill="none" id="IComponent-backto-IHash" style="stroke:#181818;stroke-width:1.0;"/><polygon fill="none" points="1255,192.6186,1249,210.6186,1261,210.6186,1255,192.6186" style="stroke:#181818;stroke-width:1.0;"/><text fill="#000000" font-family="sans-serif" font-size="13" lengthAdjust="spacing" textLength="63" x="1191" y="219.3625">&#171;interface&#187;</text></g><!--reverse link IHash to HashComponent--><g id="link_IHash_HashComponent"><path codeLine="45" d="M1059.75,366.6486 C1059.75,384.9186 1059.75,388.1286 1059.75,408.1386 " fill="none" id="IHash-backto-HashComponent" style="stroke:#181818;stroke-width:1.0;stroke-dasharray:7.0,7.0;"/><polygon fill="none" points="1059.75,348.6486,1053.75,366.6486,1065.75,366.6486,1059.75,348.6486" style="stroke:#181818;stroke-width:1.0;"/><text fill="#000000" font-family="sans-serif" font-size="13" lengthAdjust="spacing" textLength="52" x="1006.75" y="375.5925">&#171;realize&#187;</text></g><!--reverse link HashComponent to Sha256Engine--><g id="link_HashComponent_Sha256Engine"><path codeLine="46" d="M661.76,480.5286 C458.08,480.5286 232,480.5286 232,480.5286 C232,480.5286 232,580.7086 232,633.9286 " fill="none" id="HashComponent-backto-Sha256Engine" style="stroke:#181818;stroke-width:1.0;"/><polygon fill="#181818" points="673.76,480.5286,667.76,476.5286,661.76,480.5286,667.76,484.5286,673.76,480.5286" style="stroke:#181818;stroke-width:1.0;"/><text fill="#000000" font-family="sans-serif" font-size="13" lengthAdjust="spacing" textLength="70" x="305.18" y="477.7225">composition</text></g><!--reverse link HashComponent to Sha1Engine--><g id="link_HashComponent_Sha1Engine"><path codeLine="47" d="M808,565.2686 C808,593.1186 808,611.5286 808,633.7786 " fill="none" id="HashComponent-backto-Sha1Engine" style="stroke:#181818;stroke-width:1.0;"/><polygon fill="#181818" points="808,553.2686,804,559.2686,808,565.2686,812,559.2686,808,553.2686" style="stroke:#181818;stroke-width:1.0;"/><text fill="#000000" font-family="sans-serif" font-size="13" lengthAdjust="spacing" textLength="70" x="737" y="590.7225">composition</text></g><!--reverse link HashComponent to Md5Engine--><g id="link_HashComponent_Md5Engine"><path codeLine="48" d="M1066,565.2686 C1066,593.1186 1066,611.5286 1066,633.7786 " fill="none" id="HashComponent-backto-Md5Engine" style="stroke:#181818;stroke-width:1.0;"/><polygon fill="#181818" points="1066,553.2686,1062,559.2686,1066,565.2686,1070,559.2686,1066,553.2686" style="stroke:#181818;stroke-width:1.0;"/><text fill="#000000" font-family="sans-serif" font-size="13" lengthAdjust="spacing" textLength="70" x="995" y="590.7225">composition</text></g><!--link HashComponent to C_API--><g id="link_HashComponent_C_API"><path codeLine="49" d="M1155,553.3886 C1155,588.6586 1155,623.5286 1155,623.5286 C1155,623.5286 1319.5,623.5286 1456.2,623.5286 " fill="none" id="HashComponent-to-C_API" style="stroke:#181818;stroke-width:1.0;stroke-dasharray:7.0,7.0;"/><polygon fill="#181818" points="1462.2,623.5286,1453.2,619.5286,1457.2,623.5286,1453.2,627.5286,1462.2,623.5286" style="stroke:#181818;stroke-width:1.0;"/><text fill="#000000" font-family="sans-serif" font-size="13" lengthAdjust="spacing" textLength="43" x="1229.53" y="620.7225">exports</text></g><!--SRC=[jLHTQjj047xNAGO_kMwar0NtmHY34O6wK2ZDgq5iLcDfYRoxtHsbTfEK7gBNw2boavwakvOS_IGq1EmtxSottyn-e_b8K86m_CXi3dz__OPFQ9ZvLZxyOP0Yn0MpQ8F0NWkfcM4Ru2vY5qH6N9M4IwxafVY1yAu5iJbBrNSXCrYpmc8hKmY9jDC8ob2kWe1TMJACKyKAorXjj98e2Mu3WBTmUm3SmyycENm3Kk6MewRWFWY493HhnW-lU78rGqfobqciwtJeCOiYKqPGlZa37qjer53251uhVKLR5jJdyrnzcb9QaKbCWUVCZ0wqPztZQuhSe17htQlA_9VU2LM9x1cxEeTmcRFtamyNCdFpyUDpX-IG63VXSHNyd4xgs2QT9Fl6ZoBnwNGzcPWTuQeVZpkisupXSTZ7f-9kXdXqwW5ktKPAM0tYrM0blQl4uUBBSW3CGfouhxgc_skO5eaRZnLA3ZlqRgshnWmomeG_i_qErRZ2Q8zEqIsGshNWBKJdveqIgU-vPJgpkp2iJMGAizcZiSpdGHMTtKLHRu4yq7LOE9aSh9iRXRtLckvbLbQGU-xpuCF0uKLmCy4Nm54qhsMV0cwryrxdw58H0YaDQjtsNQyxByeKpqMZOPHhtRrGQzHW_Uu-WVMLieQVxrsYOUPQ1_y0]--></g></svg>