<?xml version="1.0" encoding="us-ascii" standalone="no"?><svg xmlns="http://www.w3.org/2000/svg" xmlns:xlink="http://www.w3.org/1999/xlink" contentStyleType="text/css" height="1297px" preserveAspectRatio="none" style="width:1011px;height:1297px;background:#FFFFFF;" version="1.1" viewBox="0 0 1011 1297" width="1011px" zoomAndPan="magnify"><defs/><g><text fill="#000000" font-family="sans-serif" font-size="14" font-weight="bold" lengthAdjust="spacing" textLength="328" x="337.5" y="28.1318">IHash &#8212; Secuencia de C&#225;lculo de Hash (CU-01)</text><line style="stroke:#181818;stroke-width:0.5;stroke-dasharray:5.0,5.0;" x1="22" x2="22" y1="118.1973" y2="1216.4541"/><line style="stroke:#181818;stroke-width:0.5;stroke-dasharray:5.0,5.0;" x1="165.5" x2="165.5" y1="118.1973" y2="1216.4541"/><line style="stroke:#181818;stroke-width:0.5;stroke-dasharray:5.0,5.0;" x1="377" x2="377" y1="118.1973" y2="1216.4541"/><line style="stroke:#181818;stroke-width:0.5;stroke-dasharray:5.0,5.0;" x1="583" x2="583" y1="118.1973" y2="1216.4541"/><line style="stroke:#181818;stroke-width:0.5;stroke-dasharray:5.0,5.0;" x1="737.5" x2="737.5" y1="118.1973" y2="1216.4541"/><line style="stroke:#181818;stroke-width:0.5;stroke-dasharray:5.0,5.0;" x1="880.5" x2="880.5" y1="118.1973" y2="1216.4541"/><text fill="#000000" font-family="sans-serif" font-size="14" lengthAdjust="spacing" textLength="28" x="5" y="115.2305">Host</text><ellipse cx="22" cy="50.5986" fill="#E2E2F0" rx="8" ry="8" style="stroke:#181818;stroke-width:0.5;"/><path d="M22,58.5986 L22,85.5986 M9,66.5986 L35,66.5986 M22,85.5986 L9,100.5986 M22,85.5986 L35,100.5986 " fill="none" style="stroke:#181818;stroke-width:0.5;"/><text fill="#000000" font-family="sans-serif" font-size="14" lengthAdjust="spacing" textLength="28" x="5" y="1228.5859">Host</text><ellipse cx="22" cy="1240.0527" fill="#E2E2F0" rx="8" ry="8" style="stroke:#181818;stroke-width:0.5;"/><path d="M22,1248.0527 L22,1275.0527 M9,1256.0527 L35,1256.0527 M22,1275.0527 L9,1290.0527 M22,1275.0527 L35,1290.0527 " fill="none" style="stroke:#181818;stroke-width:0.5;"/><rect fill="#E2E2F0" height="30.0986" rx="2.5" ry="2.5" style="stroke:#181818;stroke-width:0.5;" width="83" x="124.5" y="87.0986"/><text fill="#000000" font-family="sans-serif" font-size="14" lengthAdjust="spacing" textLength="69" x="131.5" y="107.2305">Application</text><rect fill="#E2E2F0" height="30.0986" rx="2.5" ry="2.5" style="stroke:#181818;stroke-width:0.5;" width="83" x="124.5" y="1215.4541"/><text fill="#000000" font-family="sans-serif" font-size="14" lengthAdjust="spacing" textLength="69" x="131.5" y="1235.5859">Application</text><rect fill="#E2E2F0" height="30.0986" rx="2.5" ry="2.5" style="stroke:#181818;stroke-width:0.5;" width="116" x="319" y="87.0986"/><text fill="#000000" font-family="sans-serif" font-size="14" lengthAdjust="spacing" textLength="102" x="326" y="107.2305">ModuleManager</text><rect fill="#E2E2F0" height="30.0986" rx="2.5" ry="2.5" style="stroke:#181818;stroke-width:0.5;" width="116" x="319" y="1215.4541"/><text fill="#000000" font-family="sans-serif" font-size="14" lengthAdjust="spacing" textLength="102" x="326" y="1235.5859">ModuleManager</text><rect fill="#E2E2F0" height="30.0986" rx="2.5" ry="2.5" style="stroke:#181818;stroke-width:0.5;" width="82" x="542" y="87.0986"/><text fill="#000000" font-family="sans-serif" font-size="14" lengthAdjust="spacing" textLength="68" x="549" y="107.2305">lib/hash.so</text><rect fill="#E2E2F0" height="30.0986" rx="2.5" ry="2.5" style="stroke:#181818;stroke-width:0.5;" width="82" x="542" y="1215.4541"/><text fill="#000000" font-family="sans-serif" font-size="14" lengthAdjust="spacing" textLength="68" x="549" y="1235.5859">lib/hash.so</text><rect fill="#E2E2F0" height="30.0986" rx="2.5" ry="2.5" style="stroke:#181818;stroke-width:0.5;" width="119" x="678.5" y="87.0986"/><text fill="#000000" font-family="sans-serif" font-size="14" lengthAdjust="spacing" textLength="105" x="685.5" y="107.2305">HashComponent</text><rect fill="#E2E2F0" height="30.0986" rx="2.5" ry="2.5" style="stroke:#181818;stroke-width:0.5;" width="119" x="678.5" y="1215.4541"/><text fill="#000000" font-family="sans-serif" font-size="14" lengthAdjust="spacing" textLength="105" x="685.5" y="1235.5859">HashComponent</text><rect fill="#E2E2F0" height="30.0986" rx="2.5" ry="2.5" style="stroke:#181818;stroke-width:0.5;" width="107" x="827.5" y="87.0986"/><text fill="#000000" font-family="sans-serif" font-size="14" lengthAdjust="spacing" textLength="93" x="834.5" y="107.2305">Sha256Engine</text><rect fill="#E2E2F0" height="30.0986" rx="2.5" ry="2.5" style="stroke:#181818;stroke-width:0.5;" width="107" x="827.5" y="1215.4541"/><text fill="#000000" font-family="sans-serif" font-size="14" lengthAdjust="spacing" textLength="93" x="834.5" y="1235.5859">Sha256Engine</text><rect fill="#EEEEEE" height="3" style="stroke:#EEEEEE;stroke-width:1.0;" width="1004" x="0" y="148.6716"/><line style="stroke:#000000;stroke-width:1.0;" x1="0" x2="1004" y1="148.6716" y2="148.6716"/><line style="stroke:#000000;stroke-width:1.0;" x1="0" x2="1004" y1="151.6716" y2="151.6716"/><rect fill="#EEEEEE" height="22.9487" style="stroke:#000000;stroke-width:2.0;" width="132" x="436" y="138.1973"/><text fill="#000000" font-family="sans-serif" font-size="13" font-weight="bold" lengthAdjust="spacing" textLength="114" x="442" y="154.3911">Carga del m&#243;dulo</text><polygon fill="#181818" points="154,188.0947,164,192.0947,154,196.0947,158,192.0947" style="stroke:#181818;stroke-width:1.0;"/><line style="stroke:#181818;stroke-width:1.0;" x1="22" x2="160" y1="192.0947" y2="192.0947"/><text fill="#000000" font-family="sans-serif" font-size="13" lengthAdjust="spacing" textLength="80" x="29" y="187.3398">app.initialize()</text><polygon fill="#181818" points="365,217.0435,375,221.0435,365,225.0435,369,221.0435" style="stroke:#181818;stroke-width:1.0;"/><line style="stroke:#181818;stroke-width:1.0;" x1="166" x2="371" y1="221.0435" y2="221.0435"/><text fill="#000000" font-family="sans-serif" font-size="13" lengthAdjust="spacing" textLength="144" x="173" y="216.2886">load_module("./lib/hash")</text><polygon fill="#181818" points="571,245.9922,581,249.9922,571,253.9922,575,249.9922" style="stroke:#181818;stroke-width:1.0;"/><line style="stroke:#181818;stroke-width:1.0;" x1="377" x2="577" y1="249.9922" y2="249.9922"/><text fill="#000000" font-family="sans-serif" font-size="13" lengthAdjust="spacing" textLength="119" x="384" y="245.2373">dlopen("lib/hash.so")</text><polygon fill="#181818" points="571,274.9409,581,278.9409,571,282.9409,575,278.9409" style="stroke:#181818;stroke-width:1.0;"/><line style="stroke:#181818;stroke-width:1.0;" x1="377" x2="577" y1="278.9409" y2="278.9409"/><text fill="#000000" font-family="sans-serif" font-size="13" lengthAdjust="spacing" textLength="142" x="384" y="274.186">dlsym("get_api_version")</text><polygon fill="#181818" points="571,303.8896,581,307.8896,571,311.8896,575,307.8896" style="stroke:#181818;stroke-width:1.0;"/><line style="stroke:#181818;stroke-width:1.0;" x1="377" x2="577" y1="307.8896" y2="307.8896"/><text fill="#000000" font-family="sans-serif" font-size="13" lengthAdjust="spacing" textLength="160" x="384" y="303.1348">dlsym("create_component")</text><polygon fill="#181818" points="571,332.8384,581,336.8384,571,340.8384,575,336.8384" style="stroke:#181818;stroke-width:1.0;"/><line style="stroke:#181818;stroke-width:1.0;" x1="377" x2="577" y1="336.8384" y2="336.8384"/><text fill="#000000" font-family="sans-serif" font-size="13" lengthAdjust="spacing" textLength="167" x="384" y="332.0835">dlsym("destroy_component")</text><polygon fill="#181818" points="388,361.7871,378,365.7871,388,369.7871,384,365.7871" style="stroke:#181818;stroke-width:1.0;"/><line style="stroke:#181818;stroke-width:1.0;stroke-dasharray:2.0,2.0;" x1="382" x2="582" y1="365.7871" y2="365.7871"/><text fill="#000000" font-family="sans-serif" font-size="13" lengthAdjust="spacing" textLength="109" x="394" y="361.0322">s&#237;mbolos resueltos</text><polygon fill="#181818" points="177,390.7358,167,394.7358,177,398.7358,173,394.7358" style="stroke:#181818;stroke-width:1.0;"/><line style="stroke:#181818;stroke-width:1.0;stroke-dasharray:2.0,2.0;" x1="171" x2="376" y1="394.7358" y2="394.7358"/><text fill="#000000" font-family="sans-serif" font-size="13" lengthAdjust="spacing" textLength="157" x="183" y="389.981">shared_ptr&lt;SharedLibrary&gt;</text><polygon fill="#181818" points="33,419.6846,23,423.6846,33,427.6846,29,423.6846" style="stroke:#181818;stroke-width:1.0;"/><line style="stroke:#181818;stroke-width:1.0;stroke-dasharray:2.0,2.0;" x1="27" x2="165" y1="423.6846" y2="423.6846"/><text fill="#000000" font-family="sans-serif" font-size="13" lengthAdjust="spacing" textLength="14" x="39" y="418.9297">ok</text><rect fill="#EEEEEE" height="3" style="stroke:#EEEEEE;stroke-width:1.0;" width="1004" x="0" y="452.1589"/><line style="stroke:#000000;stroke-width:1.0;" x1="0" x2="1004" y1="452.1589" y2="452.1589"/><line style="stroke:#000000;stroke-width:1.0;" x1="0" x2="1004" y1="455.1589" y2="455.1589"/><rect fill="#EEEEEE" height="22.9487" style="stroke:#000000;stroke-width:2.0;" width="156" x="424" y="441.6846"/><text fill="#000000" font-family="sans-serif" font-size="13" font-weight="bold" lengthAdjust="spacing" textLength="138" x="430" y="457.8784">Creaci&#243;n de instancia</text><polygon fill="#181818" points="154,491.582,164,495.582,154,499.582,158,495.582" style="stroke:#181818;stroke-width:1.0;"/><line style="stroke:#181818;stroke-width:1.0;" x1="22" x2="160" y1="495.582" y2="495.582"/><text fill="#000000" font-family="sans-serif" font-size="13" lengthAdjust="spacing" textLength="51" x="29" y="490.8271">app.run()</text><polygon fill="#181818" points="365,520.5308,375,524.5308,365,528.5308,369,524.5308" style="stroke:#181818;stroke-width:1.0;"/><line style="stroke:#181818;stroke-width:1.0;" x1="166" x2="371" y1="524.5308" y2="524.5308"/><text fill="#000000" font-family="sans-serif" font-size="13" lengthAdjust="spacing" textLength="187" x="173" y="519.7759">create_instance&lt;IHash&gt;("hash")</text><polygon fill="#181818" points="571,549.4795,581,553.4795,571,557.4795,575,553.4795" style="stroke:#181818;stroke-width:1.0;"/><line style="stroke:#181818;stroke-width:1.0;" x1="377" x2="577" y1="553.4795" y2="553.4795"/><text fill="#000000" font-family="sans-serif" font-size="13" lengthAdjust="spacing" textLength="97" x="384" y="548.7246">get_api_version()</text><polygon fill="#181818" points="388,578.4282,378,582.4282,388,586.4282,384,582.4282" style="stroke:#181818;stroke-width:1.0;"/><line style="stroke:#181818;stroke-width:1.0;stroke-dasharray:2.0,2.0;" x1="382" x2="582" y1="582.4282" y2="582.4282"/><text fill="#000000" font-family="sans-serif" font-size="13" lengthAdjust="spacing" textLength="173" x="394" y="577.6733">CURRENT_API_VERSION (1)</text><polygon fill="#181818" points="571,607.377,581,611.377,571,615.377,575,611.377" style="stroke:#181818;stroke-width:1.0;"/><line style="stroke:#181818;stroke-width:1.0;" x1="377" x2="577" y1="611.377" y2="611.377"/><text fill="#000000" font-family="sans-serif" font-size="13" lengthAdjust="spacing" textLength="115" x="384" y="606.6221">create_component()</text><polygon fill="#181818" points="726,636.3257,736,640.3257,726,644.3257,730,640.3257" style="stroke:#181818;stroke-width:1.0;"/><line style="stroke:#181818;stroke-width:1.0;" x1="583" x2="732" y1="640.3257" y2="640.3257"/><text fill="#000000" font-family="sans-serif" font-size="13" lengthAdjust="spacing" textLength="131" x="590" y="635.5708">new HashComponent()</text><polygon fill="#181818" points="594,665.2744,584,669.2744,594,673.2744,590,669.2744" style="stroke:#181818;stroke-width:1.0;"/><line style="stroke:#181818;stroke-width:1.0;stroke-dasharray:2.0,2.0;" x1="588" x2="737" y1="669.2744" y2="669.2744"/><text fill="#000000" font-family="sans-serif" font-size="13" lengthAdjust="spacing" textLength="74" x="600" y="664.5195">IComponent*</text><polygon fill="#181818" points="388,694.2231,378,698.2231,388,702.2231,384,698.2231" style="stroke:#181818;stroke-width:1.0;"/><line style="stroke:#181818;stroke-width:1.0;stroke-dasharray:2.0,2.0;" x1="382" x2="582" y1="698.2231" y2="698.2231"/><text fill="#000000" font-family="sans-serif" font-size="13" lengthAdjust="spacing" textLength="74" x="394" y="693.4683">IComponent*</text><line style="stroke:#181818;stroke-width:1.0;" x1="377" x2="419" y1="727.1719" y2="727.1719"/><line style="stroke:#181818;stroke-width:1.0;" x1="419" x2="419" y1="727.1719" y2="740.1719"/><line style="stroke:#181818;stroke-width:1.0;" x1="378" x2="419" y1="740.1719" y2="740.1719"/><polygon fill="#181818" points="388,736.1719,378,740.1719,388,744.1719,384,740.1719" style="stroke:#181818;stroke-width:1.0;"/><text fill="#000000" font-family="sans-serif" font-size="13" lengthAdjust="spacing" textLength="135" x="384" y="722.417">dynamic_cast&lt;IHash*&gt;</text><line style="stroke:#181818;stroke-width:1.0;" x1="377" x2="419" y1="769.1206" y2="769.1206"/><line style="stroke:#181818;stroke-width:1.0;" x1="419" x2="419" y1="769.1206" y2="782.1206"/><line style="stroke:#181818;stroke-width:1.0;" x1="378" x2="419" y1="782.1206" y2="782.1206"/><polygon fill="#181818" points="388,778.1206,378,782.1206,388,786.1206,384,782.1206" style="stroke:#181818;stroke-width:1.0;"/><text fill="#000000" font-family="sans-serif" font-size="13" lengthAdjust="spacing" textLength="192" x="384" y="764.3657">crear custom deleter (shared_ptr)</text><polygon fill="#181818" points="177,807.0693,167,811.0693,177,815.0693,173,811.0693" style="stroke:#181818;stroke-width:1.0;"/><line style="stroke:#181818;stroke-width:1.0;stroke-dasharray:2.0,2.0;" x1="171" x2="376" y1="811.0693" y2="811.0693"/><text fill="#000000" font-family="sans-serif" font-size="13" lengthAdjust="spacing" textLength="110" x="183" y="806.3145">shared_ptr&lt;IHash&gt;</text><polygon fill="#181818" points="33,836.0181,23,840.0181,33,844.0181,29,840.0181" style="stroke:#181818;stroke-width:1.0;"/><line style="stroke:#181818;stroke-width:1.0;stroke-dasharray:2.0,2.0;" x1="27" x2="165" y1="840.0181" y2="840.0181"/><text fill="#000000" font-family="sans-serif" font-size="13" lengthAdjust="spacing" textLength="14" x="39" y="835.2632">ok</text><rect fill="#EEEEEE" height="3" style="stroke:#EEEEEE;stroke-width:1.0;" width="1004" x="0" y="868.4924"/><line style="stroke:#000000;stroke-width:1.0;" x1="0" x2="1004" y1="868.4924" y2="868.4924"/><line style="stroke:#000000;stroke-width:1.0;" x1="0" x2="1004" y1="871.4924" y2="871.4924"/><rect fill="#EEEEEE" height="22.9487" style="stroke:#000000;stroke-width:2.0;" width="120" x="442" y="858.0181"/><text fill="#000000" font-family="sans-serif" font-size="13" font-weight="bold" lengthAdjust="spacing" textLength="102" x="448" y="874.2119">C&#225;lculo de hash</text><polygon fill="#181818" points="154,907.9155,164,911.9155,154,915.9155,158,911.9155" style="stroke:#181818;stroke-width:1.0;"/><line style="stroke:#181818;stroke-width:1.0;" x1="22" x2="160" y1="911.9155" y2="911.9155"/><text fill="#000000" font-family="sans-serif" font-size="13" lengthAdjust="spacing" textLength="120" x="29" y="907.1606">upload file (data, len)</text><polygon fill="#181818" points="726,936.8643,736,940.8643,726,944.8643,730,940.8643" style="stroke:#181818;stroke-width:1.0;"/><line style="stroke:#181818;stroke-width:1.0;" x1="166" x2="732" y1="940.8643" y2="940.8643"/><text fill="#000000" font-family="sans-serif" font-size="13" lengthAdjust="spacing" textLength="181" x="173" y="936.1094">get_hash_size(SHA256, &amp;size)</text><polygon fill="#181818" points="177,965.813,167,969.813,177,973.813,173,969.813" style="stroke:#181818;stroke-width:1.0;"/><line style="stroke:#181818;stroke-width:1.0;stroke-dasharray:2.0,2.0;" x1="171" x2="737" y1="969.813" y2="969.813"/><text fill="#000000" font-family="sans-serif" font-size="13" lengthAdjust="spacing" textLength="54" x="183" y="965.0581">size = 64</text><line style="stroke:#181818;stroke-width:1.0;" x1="166" x2="208" y1="998.7617" y2="998.7617"/><line style="stroke:#181818;stroke-width:1.0;" x1="208" x2="208" y1="998.7617" y2="1011.7617"/><line style="stroke:#181818;stroke-width:1.0;" x1="167" x2="208" y1="1011.7617" y2="1011.7617"/><polygon fill="#181818" points="177,1007.7617,167,1011.7617,177,1015.7617,173,1011.7617" style="stroke:#181818;stroke-width:1.0;"/><text fill="#000000" font-family="sans-serif" font-size="13" lengthAdjust="spacing" textLength="86" x="173" y="994.0068">alocar char[64]</text><polygon fill="#181818" points="726,1036.7104,736,1040.7104,726,1044.7104,730,1040.7104" style="stroke:#181818;stroke-width:1.0;"/><line style="stroke:#181818;stroke-width:1.0;" x1="166" x2="732" y1="1040.7104" y2="1040.7104"/><text fill="#000000" font-family="sans-serif" font-size="13" lengthAdjust="spacing" textLength="193" x="173" y="1035.9556">hash(SHA256, data, len, hex, 64)</text><polygon fill="#181818" points="869,1065.6592,879,1069.6592,869,1073.6592,873,1069.6592" style="stroke:#181818;stroke-width:1.0;"/><line style="stroke:#181818;stroke-width:1.0;" x1="738" x2="875" y1="1069.6592" y2="1069.6592"/><text fill="#000000" font-family="sans-serif" font-size="13" lengthAdjust="spacing" textLength="108" x="745" y="1064.9043">compute(data, len)</text><line style="stroke:#181818;stroke-width:1.0;" x1="881" x2="923" y1="1098.6079" y2="1098.6079"/><line style="stroke:#181818;stroke-width:1.0;" x1="923" x2="923" y1="1098.6079" y2="1111.6079"/><line style="stroke:#181818;stroke-width:1.0;" x1="882" x2="923" y1="1111.6079" y2="1111.6079"/><polygon fill="#181818" points="892,1107.6079,882,1111.6079,892,1115.6079,888,1111.6079" style="stroke:#181818;stroke-width:1.0;"/><text fill="#000000" font-family="sans-serif" font-size="13" lengthAdjust="spacing" textLength="109" x="888" y="1093.853">SHA-256 algorithm</text><polygon fill="#181818" points="749,1136.5566,739,1140.5566,749,1144.5566,745,1140.5566" style="stroke:#181818;stroke-width:1.0;"/><line style="stroke:#181818;stroke-width:1.0;stroke-dasharray:2.0,2.0;" x1="743" x2="880" y1="1140.5566" y2="1140.5566"/><text fill="#000000" font-family="sans-serif" font-size="13" lengthAdjust="spacing" textLength="119" x="755" y="1135.8018">hex string (64 chars)</text><polygon fill="#181818" points="177,1165.5054,167,1169.5054,177,1173.5054,173,1169.5054" style="stroke:#181818;stroke-width:1.0;"/><line style="stroke:#181818;stroke-width:1.0;stroke-dasharray:2.0,2.0;" x1="171" x2="737" y1="1169.5054" y2="1169.5054"/><text fill="#000000" font-family="sans-serif" font-size="13" lengthAdjust="spacing" textLength="174" x="183" y="1164.7505">ComponentResult::SUCCESS</text><polygon fill="#181818" points="33,1194.4541,23,1198.4541,33,1202.4541,29,1198.4541" style="stroke:#181818;stroke-width:1.0;"/><line style="stroke:#181818;stroke-width:1.0;stroke-dasharray:2.0,2.0;" x1="27" x2="165" y1="1198.4541" y2="1198.4541"/><text fill="#000000" font-family="sans-serif" font-size="13" lengthAdjust="spacing" textLength="107" x="39" y="1193.6992">hash + SUCCESS</text><!--SRC=[TLDDRjf05Dxx54yiAfD2qbIK1Gf8o485gK24cswgofgCNs7KyOmrCsv3LZr4Bz03T9KZS9EUf6ziS34XEtk-z_DzttlF2ISHPbDcD_3tvo-8aHUek62G8aIxtv8NKlllCYACxhflhjj1mBZJ1gRQkY1dnWakSgOSZFDS2iwSq0gOXV7jRGEUwxIGE6UAhT7uWFcyWRUakB_QKADBgriUZvSDt7E8T9PhXVH7-3HgviSRzlPTVwBMGc5POB9u7mJ38KJChBqa2TdkAVMIXiF0quVkoDE40R0ylnHAEC6aUCIm7VXdGkTp0gLcQPALzCFMvTM1PwiT44n1yPA2KgbpL653nKc0tMPXQuqkORb8lgEnvDJP66wGEKpuGUtPe1IjCthRY2AyUs1jTt-oUosr1OEsGEcqBQlKcks66KoJt9cRkFpy8EuDCzjH9PxYIey6eBzLDX8hBdPFoc-4KDQnSbNEUcaATMBYNjC-3s_AhHk5hUTEdZWKDcL5TwlLPF4n6T_Eaa-JLJnRBY2yRXGujMzVWVH4X2hyqTmbWWde7h9dDN3HQ7pyNZKhdzEjOfdW2MVMLQ8kHiUu9sE05zRfpEyWEjh-yB_txHU7KZdqqZ2EhjDR-7mCHUxt5huAEl4mPOvrGAAgXr9wuQtssOdrMnzFntH07NZb_sfJzhpe2ORGxntozxEMcdjvnFfpl_UbKTmNhclM13gmmOSE5QeQZFoLUfl8tCBXCL4Fr3ZLwL8XQhZMHhXDLi5rBtm0EWUXrX3sUoKVUwAW7j-Apa6wmI2-Yw9979yQNBhv6WxeFm00]--></g></svg>